<svg xmlns="http://www.w3.org/2000/svg" viewBox="0 0 832.79 153.44"><g id="Warstwa_2" data-name="Warstwa 2"><g id="Warstwa_1-2" data-name="Warstwa 1"><path d="M180.61,128a.72.72,0,0,1,.7-.7h3.43a.7.7,0,0,1,.7.7v9.76h12V128a.7.7,0,0,1,.7-.7h3.39a.72.72,0,0,1,.7.7v24.39a.72.72,0,0,1-.7.7h-3.39a.7.7,0,0,1-.7-.7V142.2h-12v10.17a.7.7,0,0,1-.7.7h-3.43a.72.72,0,0,1-.7-.7Z"/><path d="M226.45,126.91a13.27,13.27,0,1,1-13.23,13.3A13.24,13.24,0,0,1,226.45,126.91Zm0,21.74a8.48,8.48,0,1,0-8.44-8.44A8.49,8.49,0,0,0,226.45,148.65Z"/><path d="M250.66,128a.7.7,0,0,1,.7-.7h8.44c4.39,0,7.78,2.95,7.78,6.82,0,2.83-2.33,5.05-4.06,5.86,2,.62,4.79,2.61,4.79,6,0,4.13-3.53,7.11-8,7.11h-8.92a.7.7,0,0,1-.7-.7Zm8.7,10.13a3.15,3.15,0,0,0,3.17-3.31,3,3,0,0,0-3.17-3.14h-3.94v6.45Zm.51,10.62a3.29,3.29,0,0,0,3.32-3.36c0-1.84-1.84-3.2-3.76-3.2h-4v6.56Z"/><path d="M279.52,128a.7.7,0,0,1,.7-.7h8.43c4.39,0,7.78,2.95,7.78,6.82,0,2.83-2.32,5.05-4.05,5.86,1.95.62,4.79,2.61,4.79,6,0,4.13-3.54,7.11-8,7.11h-8.91a.7.7,0,0,1-.7-.7Zm8.69,10.13a3.15,3.15,0,0,0,3.17-3.31,3,3,0,0,0-3.17-3.14h-3.94v6.45Zm.52,10.62a3.29,3.29,0,0,0,3.31-3.36c0-1.84-1.84-3.2-3.75-3.2h-4v6.56Z"/><path d="M308.37,128a.72.72,0,0,1,.7-.7h3.43a.73.73,0,0,1,.7.7v24.39a.73.73,0,0,1-.7.7h-3.43a.72.72,0,0,1-.7-.7Z"/><path d="M329.48,131.7h-5.63a.7.7,0,0,1-.7-.7v-3a.7.7,0,0,1,.7-.7H340a.7.7,0,0,1,.7.7v3a.7.7,0,0,1-.7.7h-5.64v20.67a.72.72,0,0,1-.7.7h-3.43a.73.73,0,0,1-.7-.7Z"/><path d="M361.73,126.91a13.27,13.27,0,1,1-13.23,13.3A13.23,13.23,0,0,1,361.73,126.91Zm0,21.74a8.48,8.48,0,1,0-8.44-8.44A8.49,8.49,0,0,0,361.73,148.65Z"/><path d="M383.47,128.16a.64.64,0,0,1,.66-.88h3.39a.77.77,0,0,1,.67.52L392,142.5h.15L398,127.32a.59.59,0,0,1,.62-.41h.67a.59.59,0,0,1,.62.41l5.9,15.18H406l3.75-14.7a.77.77,0,0,1,.67-.52h3.39a.64.64,0,0,1,.66.88l-7,24.77a.72.72,0,0,1-.67.51h-.59a.61.61,0,0,1-.62-.4l-6.6-16.7h-.18L392.31,153a.61.61,0,0,1-.62.4h-.59a.72.72,0,0,1-.67-.51Z"/><path d="M420.54,152.12,432,127.32a.67.67,0,0,1,.63-.41H433a.63.63,0,0,1,.62.41L445,152.12a.64.64,0,0,1-.62.95h-3.21a1.07,1.07,0,0,1-1.07-.73l-1.8-4h-11l-1.81,4a1.11,1.11,0,0,1-1.07.73h-3.2A.64.64,0,0,1,420.54,152.12Zm15.92-7.85-3.68-8.11h-.12l-3.61,8.11Z"/><path d="M477.33,128.16a.64.64,0,0,1,.66-.88h3.39a.74.74,0,0,1,.66.52l3.84,14.7H486l5.86-15.18a.61.61,0,0,1,.63-.41h.66a.6.6,0,0,1,.63.41l5.9,15.18h.14l3.76-14.7a.76.76,0,0,1,.66-.52h3.4a.64.64,0,0,1,.66.88l-7,24.77a.7.7,0,0,1-.66.51h-.59a.64.64,0,0,1-.63-.4l-6.59-16.7h-.19L486.17,153a.63.63,0,0,1-.63.4H485a.72.72,0,0,1-.67-.51Z"/><path d="M518.75,128a.72.72,0,0,1,.7-.7h3.42a.72.72,0,0,1,.7.7v24.39a.72.72,0,0,1-.7.7h-3.42a.72.72,0,0,1-.7-.7Z"/><path d="M547.78,126.91a13.27,13.27,0,1,1-13.23,13.3A13.24,13.24,0,0,1,547.78,126.91Zm0,21.74a8.48,8.48,0,1,0-8.43-8.44A8.49,8.49,0,0,0,547.78,148.65Z"/><path d="M570.48,149.46l1.33-2.28a.85.85,0,0,1,1.25-.26c.19.11,3.17,2.29,5.57,2.29a3.08,3.08,0,0,0,3.35-2.84c0-1.88-1.58-3.17-4.68-4.42-3.46-1.4-6.93-3.62-6.93-8,0-3.28,2.44-7.08,8.29-7.08a13,13,0,0,1,7.38,2.47.93.93,0,0,1,.22,1.22l-1.4,2.1a1,1,0,0,1-1.29.44c-.3-.19-3.1-2-5.13-2s-3.24,1.4-3.24,2.58c0,1.73,1.36,2.91,4.35,4.13,3.57,1.44,7.7,3.57,7.7,8.33,0,3.79-3.28,7.29-8.47,7.29a11.86,11.86,0,0,1-8.11-2.87C570.34,150.24,570.15,150.05,570.48,149.46Z"/><path d="M598.08,128.16a.87.87,0,0,1,.89-.88h3.24a.9.9,0,0,1,.89.88v10l9.28-10.46a.87.87,0,0,1,.7-.37h3.69a.79.79,0,0,1,.59,1.33l-9.62,10.83,10.32,12.34a.81.81,0,0,1-.67,1.29h-4a.83.83,0,0,1-.67-.25L603.1,141v11.24a.9.9,0,0,1-.89.88H599a.87.87,0,0,1-.89-.88Z"/><path d="M625,152.12l11.46-24.8a.66.66,0,0,1,.62-.41h.37a.63.63,0,0,1,.63.41l11.35,24.8a.65.65,0,0,1-.63.95h-3.21a1,1,0,0,1-1.06-.73l-1.81-4h-11l-1.8,4a1.11,1.11,0,0,1-1.07.73h-3.21A.64.64,0,0,1,625,152.12Zm15.91-7.85-3.68-8.11h-.11l-3.61,8.11Z"/><path d="M0,98.72,27,49.91v-.36H4.35a1.78,1.78,0,0,1-1.72-1.72V40.3a1.79,1.79,0,0,1,1.72-1.73H42.27A1.79,1.79,0,0,1,44,40.3v1.18L17.33,90.92v.18H40.46a1.71,1.71,0,0,1,1.72,1.72v7.53a1.71,1.71,0,0,1-1.72,1.72H1.72A1.78,1.78,0,0,1,0,100.35Z"/><path d="M54.79,40.3a1.78,1.78,0,0,1,1.72-1.73H65a1.79,1.79,0,0,1,1.72,1.73v60.05A1.78,1.78,0,0,1,65,102.07H56.51a1.77,1.77,0,0,1-1.72-1.72Z"/><path d="M398.93,40.75a1.59,1.59,0,0,1,1.64-2.18h8.34a1.86,1.86,0,0,1,1.63,1.27L420,76h.36l14.42-37.37a1.47,1.47,0,0,1,1.55-1h1.63a1.45,1.45,0,0,1,1.54,1L454,76h.36l9.25-36.2a1.87,1.87,0,0,1,1.63-1.27h8.35a1.58,1.58,0,0,1,1.63,2.18l-17.14,61a1.74,1.74,0,0,1-1.64,1.27H455a1.54,1.54,0,0,1-1.54-1L437.21,60.89h-.45L420.7,102a1.53,1.53,0,0,1-1.54,1h-1.45a1.73,1.73,0,0,1-1.63-1.27Z"/><path d="M480.11,98.72l27-48.81v-.36H484.47a1.77,1.77,0,0,1-1.72-1.72V40.3a1.78,1.78,0,0,1,1.72-1.73h37.92a1.79,1.79,0,0,1,1.72,1.73v1.18L497.44,90.92v.18h23.13a1.72,1.72,0,0,1,1.73,1.72v7.53a1.72,1.72,0,0,1-1.73,1.72H481.84a1.78,1.78,0,0,1-1.73-1.72Z"/><path d="M562.39,37.67a34.29,34.29,0,0,1,22.13,8.43,1.75,1.75,0,0,1,.09,2.54L579,54.54a1.54,1.54,0,0,1-2.36,0,20.55,20.55,0,0,0-13.7-5.26c-11.34,0-20.32,9.71-20.32,21A20.64,20.64,0,0,0,563,91.1a28.3,28.3,0,0,0,10.8-2.27V81.12h-7.26a1.65,1.65,0,0,1-1.72-1.63V72.32a1.66,1.66,0,0,1,1.72-1.72H584a1.7,1.7,0,0,1,1.63,1.72V95.54a1.74,1.74,0,0,1-.72,1.45,45.85,45.85,0,0,1-22.5,5.9,32.61,32.61,0,0,1,0-65.22Z"/><path d="M627,37.67a32.66,32.66,0,1,1-32.56,32.75A32.59,32.59,0,0,1,627,37.67Zm0,53.52A20.87,20.87,0,1,0,606.2,70.42,20.91,20.91,0,0,0,627,91.19Zm-8.52-59.42-1.64-3.17a1.36,1.36,0,0,1,.55-1.73L632.23,18c1-.63,1.91-.54,2.36.28L637.13,23a1.61,1.61,0,0,1-.54,2.45l-15.88,7C619.44,33,618.81,32.59,618.45,31.77Z"/><path d="M671.51,40.3a1.72,1.72,0,0,1,1.72-1.73h25.95A19.65,19.65,0,0,1,719,58.08c0,8.34-5.53,15.15-13.42,18.32l12.42,23a1.71,1.71,0,0,1-1.54,2.63h-9.52a1.55,1.55,0,0,1-1.45-.81l-12.07-24H683.3v23.13a1.77,1.77,0,0,1-1.72,1.72h-8.35a1.71,1.71,0,0,1-1.72-1.72Zm26.67,27.21a9.23,9.23,0,0,0,9-9.25,9,9,0,0,0-9-8.8H683.39V67.51Z"/><path d="M725.93,98.72l27-48.81v-.36H730.29a1.78,1.78,0,0,1-1.73-1.72V40.3a1.79,1.79,0,0,1,1.73-1.73H768.2a1.79,1.79,0,0,1,1.73,1.73v1.18L743.26,90.92v.18h23.13a1.71,1.71,0,0,1,1.72,1.72v7.53a1.71,1.71,0,0,1-1.72,1.72H727.66a1.78,1.78,0,0,1-1.73-1.72Z"/><path d="M772.47,99.72l28.21-61a1.61,1.61,0,0,1,1.54-1h.91a1.54,1.54,0,0,1,1.54,1l27.94,61.05a1.6,1.6,0,0,1-1.54,2.35h-7.9a2.61,2.61,0,0,1-2.63-1.81l-4.44-9.8H789l-4.45,9.8a2.72,2.72,0,0,1-2.63,1.81H774A1.59,1.59,0,0,1,772.47,99.72Zm39.18-19.33-9.07-20h-.27l-8.89,20Z"/><path d="M371.23,35.73a2,2,0,0,0-2.6-1.9A94.74,94.74,0,0,1,339,38.68c-23.78,0-42.12-9.16-61.55-18.86S237.8,0,212,0s-46,10.07-65.53,19.82S108.65,38.68,84.87,38.68q-3.24,0-6.48-.25a2,2,0,0,0-2.16,2v7.82a2,2,0,0,0,1.85,2q3.39.23,6.79.23c25.85,0,46-10.07,65.53-19.81S188.17,11.79,212,11.79,254.08,21,273.5,30.66,313.18,50.47,339,50.47a102.63,102.63,0,0,0,30.8-4.83,2,2,0,0,0,1.4-1.91Z"/><path d="M121.82,91.19H95V75.31h22.41a1.72,1.72,0,0,0,1.72-1.72V66.06a1.78,1.78,0,0,0-1.72-1.72H95V58a97.5,97.5,0,0,1-10.1.52l-1.69,0v41.91a1.71,1.71,0,0,0,1.72,1.72h36.92a1.72,1.72,0,0,0,1.73-1.72V92.91A1.73,1.73,0,0,0,121.82,91.19Z"/><path d="M209.72,37.67a32.66,32.66,0,1,1-32.57,32.75A32.6,32.6,0,0,1,209.72,37.67Zm0,53.52A20.87,20.87,0,1,0,189,70.42,20.9,20.9,0,0,0,209.72,91.19Z"/><path d="M171.44,91.19H148.31V40.3a1.5,1.5,0,0,0-.11-.55c-3.85,1.92-7.73,3.84-11.69,5.67v54.93a1.72,1.72,0,0,0,1.73,1.72h33.2a1.71,1.71,0,0,0,1.72-1.72V92.91A1.72,1.72,0,0,0,171.44,91.19Z"/><path d="M296.07,49.24V77.76H296L258.24,37.67H256a1.71,1.71,0,0,0-1.73,1.63v61.05a1.78,1.78,0,0,0,1.73,1.72h8.25a1.72,1.72,0,0,0,1.73-1.72v-39h.09L304,103h2.18a1.71,1.71,0,0,0,1.73-1.63V53.54C303.83,52.27,299.91,50.82,296.07,49.24Z"/><path d="M363,91.19H336.16V75.31h22.41a1.71,1.71,0,0,0,1.72-1.72V66.06a1.77,1.77,0,0,0-1.72-1.72H336.16V58.43a99.33,99.33,0,0,1-11.79-1.06v43a1.72,1.72,0,0,0,1.72,1.72H363a1.72,1.72,0,0,0,1.72-1.72V92.91A1.73,1.73,0,0,0,363,91.19Z"/></g></g></svg>